<svg width="30" height="31" viewBox="0 0 30 31" fill="none" xmlns="http://www.w3.org/2000/svg">
<path fill-rule="evenodd" clip-rule="evenodd" d="M8.75098 26.271H21.251C25.001 26.271 27.501 24.396 27.501 20.021V11.271C27.501 6.896 25.001 5.021 21.251 5.021H8.75098C5.00098 5.021 2.50098 6.896 2.50098 11.271V20.021C2.50098 24.396 5.00098 26.271 8.75098 26.271ZM21.8123 12.5991C22.2007 12.2888 22.264 11.7225 21.9538 11.3342C21.6436 10.9458 21.0773 10.8824 20.6889 11.1926L16.7771 14.3171C15.8179 15.0803 14.1716 15.0804 13.2122 14.3175L9.31339 11.1935C8.9255 10.8827 8.35909 10.9452 8.04828 11.3331C7.73746 11.721 7.79995 12.2874 8.18784 12.5982L12.0878 15.7232L12.0901 15.7249C13.7056 17.0111 16.2831 17.0111 17.8987 15.7249L21.8123 12.5991Z" fill="#BD1621"/>
</svg>
